<svg
  xmlns="http://www.w3.org/2000/svg"
  width="256"
  height="256"
  viewBox="0 0 256 256"
  role="img"
  aria-label="Panchtarni Atta"
>
  <defs>
    <linearGradient id="bg" x1="0" y1="0" x2="1" y2="1">
      <stop offset="0" stop-color="#ffffff" />
      <stop offset="1" stop-color="#F5E6C8" />
    </linearGradient>
    <linearGradient id="accent" x1="0" y1="0" x2="1" y2="0">
      <stop offset="0" stop-color="#8B5E3C" />
      <stop offset="1" stop-color="#2F5D50" />
    </linearGradient>
    <filter id="soft" x="-20%" y="-20%" width="140%" height="140%">
      <feDropShadow dx="0" dy="10" stdDeviation="10" flood-color="#111111" flood-opacity="0.08" />
    </filter>
  </defs>

  <rect
    x="12"
    y="12"
    width="232"
    height="232"
    rx="56"
    fill="url(#bg)"
    stroke="#1B1B1B"
    stroke-opacity="0.12"
    filter="url(#soft)"
  />

  <g opacity="0.14" stroke="#8B5E3C" stroke-width="2" fill="none">
    <path d="M66 210c30-40 30-124 0-164" />
    <path d="M96 224c36-46 36-142 0-192" />
    <path d="M126 232c42-52 42-156 0-208" />
    <path d="M156 232c42-52 42-156 0-208" />
    <path d="M186 224c36-46 36-142 0-192" />
  </g>

  <text
    x="128"
    y="124"
    text-anchor="middle"
    dominant-baseline="middle"
    font-family="Inter, system-ui, -apple-system, Segoe UI, Roboto, Ubuntu, Cantarell, Arial, sans-serif"
    font-weight="700"
    font-size="120"
    fill="#8B5E3C"
  >
    P
  </text>

  <g stroke="url(#accent)" stroke-width="8" stroke-linecap="round" opacity="0.9">
    <path d="M84 174c12 10 26 16 44 16s32-6 44-16" />
  </g>
</svg>
